<svg xmlns="http://www.w3.org/2000/svg" viewBox="0 0 1600 900" role="img" aria-label="Una persona sana de frente; su ojo ampliado muestra el iris real en naranja en el centro y un anillo violeta corrido hacia un costado: dónde estaría el iris con la patología simulada.">
<defs>
  <marker id="pa" viewBox="0 0 10 10" refX="5" refY="5" markerWidth="4" markerHeight="4" orient="auto-start-reverse"><path d="M0,0L10,5L0,10Z" fill="#2e7dd6"/></marker>
  <marker id="pn" viewBox="0 0 10 10" refX="5" refY="5" markerWidth="4" markerHeight="4" orient="auto-start-reverse"><path d="M0,0L10,5L0,10Z" fill="#e8721c"/></marker>
  <marker id="pg" viewBox="0 0 10 10" refX="5" refY="5" markerWidth="4" markerHeight="4" orient="auto-start-reverse"><path d="M0,0L10,5L0,10Z" fill="#71717a"/></marker>
  <marker id="pv" viewBox="0 0 10 10" refX="5" refY="5" markerWidth="4" markerHeight="4" orient="auto"><path d="M0,0L10,5L0,10Z" fill="#9b51d0"/></marker>
</defs>
<rect width="1600" height="900" fill="#18181b"/>
<rect x="240" y="640" width="460" height="200" rx="90" fill="#3f5249"/><ellipse cx="303.4" cy="467" rx="23.8" ry="42.5" fill="#c8a58a"/><ellipse cx="636.6" cy="467" rx="23.8" ry="42.5" fill="#c8a58a"/><ellipse cx="470" cy="450" rx="170" ry="207.4" fill="#c8a58a"/><path d="M296.6,416Q300,203.5 470,229Q640,203.5 643.4,416Q589,288.5 470,297Q351,288.5 296.6,416Z" fill="#27272a"/><ellipse cx="402" cy="429.6" rx="34" ry="18.7" fill="#f4f4f5"/><circle cx="402" cy="429.6" r="14.450000000000001" fill="#e8721c"/><path d="M364.6,395.6Q402,378.6 439.4,395.6" stroke="#27272a" stroke-width="8.5" fill="none" stroke-linecap="round"/><ellipse cx="538" cy="429.6" rx="34" ry="18.7" fill="#f4f4f5"/><circle cx="538" cy="429.6" r="14.450000000000001" fill="#e8721c"/><path d="M500.6,395.6Q538,378.6 575.4,395.6" stroke="#27272a" stroke-width="8.5" fill="none" stroke-linecap="round"/><path d="M470,441.5L480.2,501L466.6,506.1" stroke="#00000033" stroke-width="8.5" fill="none" stroke-linejoin="round"/><path d="M427.5,552Q470,572.4 512.5,552" stroke="#00000044" stroke-width="8.5" fill="none" stroke-linecap="round"/><circle cx="402" cy="429" r="48" fill="none" stroke="#71717a" stroke-width="5"/><line x1="436" y1="395" x2="908.4" y2="244" stroke="#71717a" stroke-width="4"/><line x1="436" y1="463" x2="908.4" y2="636" stroke="#71717a" stroke-width="4"/><circle cx="1110" cy="440" r="280" fill="#c8a58a" stroke="#71717a" stroke-width="8"/><ellipse cx="1110" cy="440" rx="220" ry="118" fill="#f4f4f5"/><path d="M880,420Q1110,250 1340,420" stroke="#00000044" stroke-width="10" fill="none"/><circle cx="1110" cy="440" r="78" fill="#e8721c"/><circle cx="1110" cy="440" r="34" fill="#18181b"/><circle cx="1205" cy="440" r="78" fill="none" stroke="#9b51d0" stroke-width="12" stroke-dasharray="4 0"/><path d="M1120,568L1200,568" stroke="#9b51d0" stroke-width="8" marker-end="url(#pv)"/>
</svg>
