<svg xmlns="http://www.w3.org/2000/svg" viewBox="0 0 1600 900" role="img" aria-label="Cara de frente con la cabeza bajando (flecha azul al costado) y los dos ojos subiendo (flechas naranjas hacia arriba); alrededor de un ojo, un arco gris punteado sugiere la torsión.">
<defs>
  <marker id="pa" viewBox="0 0 10 10" refX="5" refY="5" markerWidth="4" markerHeight="4" orient="auto-start-reverse"><path d="M0,0L10,5L0,10Z" fill="#2e7dd6"/></marker>
  <marker id="pn" viewBox="0 0 10 10" refX="5" refY="5" markerWidth="4" markerHeight="4" orient="auto-start-reverse"><path d="M0,0L10,5L0,10Z" fill="#e8721c"/></marker>
  <marker id="pg" viewBox="0 0 10 10" refX="5" refY="5" markerWidth="4" markerHeight="4" orient="auto-start-reverse"><path d="M0,0L10,5L0,10Z" fill="#71717a"/></marker>
</defs>
<rect width="1600" height="900" fill="#18181b"/>
<rect x="570" y="690" width="460" height="200" rx="90" fill="#57534e"/><ellipse cx="633.4" cy="517" rx="23.8" ry="42.5" fill="#c8a58a"/><ellipse cx="966.6" cy="517" rx="23.8" ry="42.5" fill="#c8a58a"/><ellipse cx="800" cy="500" rx="170" ry="207.4" fill="#c8a58a"/><path d="M626.6,466Q630,253.5 800,279Q970,253.5 973.4,466Q919,338.5 800,347Q681,338.5 626.6,466Z" fill="#29292d"/><ellipse cx="732" cy="479.6" rx="34" ry="18.7" fill="#f4f4f5"/><circle cx="732" cy="479.6" r="14.450000000000001" fill="#e8721c"/><path d="M694.6,445.6Q732,428.6 769.4,445.6" stroke="#29292d" stroke-width="8.5" fill="none" stroke-linecap="round"/><ellipse cx="868" cy="479.6" rx="34" ry="18.7" fill="#f4f4f5"/><circle cx="868" cy="479.6" r="14.450000000000001" fill="#e8721c"/><path d="M830.6,445.6Q868,428.6 905.4,445.6" stroke="#29292d" stroke-width="8.5" fill="none" stroke-linecap="round"/><path d="M800,491.5L810.2,551L796.6,556.1" stroke="#00000033" stroke-width="8.5" fill="none" stroke-linejoin="round"/><path d="M757.5,602Q800,622.4 842.5,602" stroke="#00000044" stroke-width="8.5" fill="none" stroke-linecap="round"/><ellipse cx="732" cy="480" rx="34" ry="19" fill="#f4f4f5"/><circle cx="732" cy="470" r="14.5" fill="#e8721c"/><path d="M732,435L732,360" fill="none" stroke="#e8721c" stroke-width="10" stroke-linecap="round" marker-end="url(#pn)" /><ellipse cx="868" cy="480" rx="34" ry="19" fill="#f4f4f5"/><circle cx="868" cy="470" r="14.5" fill="#e8721c"/><path d="M868,435L868,360" fill="none" stroke="#e8721c" stroke-width="10" stroke-linecap="round" marker-end="url(#pn)" /><path d="M1100,350L1100,560" fill="none" stroke="#2e7dd6" stroke-width="14" stroke-linecap="round" marker-end="url(#pa)" /><path d="M782.2,509A58,58 0 0 1 681.8,509" fill="none" stroke="#71717a" stroke-width="6" stroke-dasharray="10 10" marker-end="url(#pg)"/>
</svg>
