<svg xmlns="http://www.w3.org/2000/svg" viewBox="0 0 1600 900" role="img" aria-label="Cabeza vista desde arriba con los dos planos verticales en diagonal: marcado el que une el canal anterior izquierdo, adelante a la izquierda, con el posterior derecho, atrás a la derecha (LARP); el otro (RALP) punteado y tenue.">
<defs>
  <marker id="pa" viewBox="0 0 10 10" refX="5" refY="5" markerWidth="4" markerHeight="4" orient="auto-start-reverse"><path d="M0,0L10,5L0,10Z" fill="#2e7dd6"/></marker>
  <marker id="pn" viewBox="0 0 10 10" refX="5" refY="5" markerWidth="4" markerHeight="4" orient="auto-start-reverse"><path d="M0,0L10,5L0,10Z" fill="#e8721c"/></marker>
  <marker id="pg" viewBox="0 0 10 10" refX="5" refY="5" markerWidth="4" markerHeight="4" orient="auto-start-reverse"><path d="M0,0L10,5L0,10Z" fill="#71717a"/></marker>
</defs>
<rect width="1600" height="900" fill="#18181b"/>
<line x1="1075.8" y1="194.2" x2="524.2" y2="745.8" stroke-linecap="round" stroke="#71717a" stroke-width="8" stroke-dasharray="22 18" stroke-opacity="0.45"/><line x1="524.2" y1="194.2" x2="1075.8" y2="745.8" stroke-linecap="round" stroke="#e4e4e7" stroke-width="12" marker-start="url(#pg)" marker-end="url(#pg)"/><g><ellipse cx="633.4" cy="478.5" rx="23.8" ry="40.8" transform="rotate(0 633.4 478.5)" fill="#c8a58a"/><ellipse cx="966.6" cy="478.5" rx="23.8" ry="40.8" transform="rotate(0 966.6 478.5)" fill="#c8a58a"/><ellipse cx="800" cy="470" rx="170" ry="183.60000000000002" transform="rotate(0 800 470)" fill="#c8a58a"/><ellipse cx="800" cy="504" rx="158.1" ry="153" transform="rotate(0 800 504)" fill="#2b2b30"/><path d="M776.2,300L800,266L823.8,300Z" fill="#c8a58a"/><circle cx="728.6" cy="334" r="22.1" fill="#f4f4f5"/><circle cx="728.6" cy="323.8" r="11.9" fill="#e8721c"/><circle cx="871.4" cy="334" r="22.1" fill="#f4f4f5"/><circle cx="871.4" cy="323.8" r="11.9" fill="#e8721c"/></g><ellipse cx="585" cy="470" rx="47.6" ry="18.2" transform="rotate(0 585 470)" fill="none" stroke="#52525b" stroke-width="9.8"/><ellipse cx="576.6" cy="433.6" rx="42" ry="15.4" transform="rotate(45 576.6 433.6)" fill="none" stroke="#e4e4e7" stroke-width="9.8"/><ellipse cx="576.6" cy="506.4" rx="42" ry="15.4" transform="rotate(-45 576.6 506.4)" fill="none" stroke="#52525b" stroke-width="9.8"/><ellipse cx="1015" cy="470" rx="47.6" ry="18.2" transform="rotate(0 1015 470)" fill="none" stroke="#52525b" stroke-width="9.8"/><ellipse cx="1023.4" cy="433.6" rx="42" ry="15.4" transform="rotate(-45 1023.4 433.6)" fill="none" stroke="#52525b" stroke-width="9.8"/><ellipse cx="1023.4" cy="506.4" rx="42" ry="15.4" transform="rotate(45 1023.4 506.4)" fill="none" stroke="#e4e4e7" stroke-width="9.8"/>
</svg>
